<?xml version="1.0" encoding="iso-8859-1"?>
<!-- Uploaded to: SVG Repo, www.svgrepo.com, Generator: SVG Repo Mixer Tools -->
<svg height="800px" width="800px" version="1.1" id="Layer_1" xmlns="http://www.w3.org/2000/svg" xmlns:xlink="http://www.w3.org/1999/xlink" 
	 viewBox="0 0 512 512" xml:space="preserve">
<polygon style="fill:#FFDB8A;" points="216.957,393.085 173.383,173.404 40.851,134.078 8.17,124.383 8.17,289.595 "/>
<polygon style="fill:#FFCD60;" points="173.383,338.617 8.17,289.595 8.17,454.808 173.383,503.829 206.064,421.223 "/>
<polygon style="fill:#FFBE35;" points="503.83,338.617 503.83,503.829 471.149,494.134 449.362,296.24 "/>
<polygon style="fill:#FFCD60;" points="471.149,328.921 471.149,494.134 338.606,454.808 295.032,246.021 "/>
<polygon style="fill:#FFBE35;" points="338.606,289.595 338.606,454.808 173.383,503.829 173.383,338.617 255.995,282.364 "/>
<polygon style="fill:#FFCD60;" points="503.83,173.404 503.83,338.617 471.149,328.921 449.362,246.315 471.149,163.709 "/>
<polygon style="fill:#FFDB8A;" points="471.149,163.709 471.149,328.921 338.606,289.595 305.925,206.989 338.606,124.383 "/>
<polygon style="fill:#FFCD60;" points="338.606,124.383 338.606,289.595 173.383,338.617 173.383,173.404 "/>
<path style="fill:#E02E00;" d="M338.607,8.17v248.743c0,0,92.596-92.467,92.596-156.147C431.203,49.708,389.665,8.17,338.607,8.17z"
	/>
<path style="fill:#FF4719;" d="M338.607,8.17c-51.057,0-92.596,41.538-92.596,92.596c0,63.68,92.596,156.147,92.596,156.147
	s70.809-92.467,70.809-156.147C409.416,49.708,377.651,8.17,338.607,8.17z"/>
<path style="fill:#FFFFFF;" d="M338.607,149.787c-27.03,0-49.021-21.991-49.021-49.021s21.991-49.021,49.021-49.021
	c27.03,0,49.021,21.991,49.021,49.021S365.638,149.787,338.607,149.787z"/>
<path d="M512,338.48V173.4c0-3.617-2.379-6.804-5.845-7.833l-76.378-22.661c5.912-14.461,9.597-28.815,9.597-42.141
	c0-55.562-45.203-100.765-100.766-100.765S237.841,45.204,237.841,100.765c0,13.326,3.685,27.68,9.597,42.141l-74.054,21.971
	L10.494,116.545c-2.471-0.731-5.144-0.256-7.21,1.285C1.217,119.373,0,121.8,0,124.378v165.287c0,0.02,0,0.04,0,0.06v165.083
	c0,3.617,2.378,6.804,5.847,7.833l165.092,48.985c0.016,0.004,0.032,0.009,0.048,0.014l0.075,0.023
	c0.026,0.008,0.053,0.01,0.08,0.017c0.304,0.087,0.615,0.154,0.934,0.205c0.085,0.014,0.17,0.028,0.256,0.039
	c0.342,0.044,0.688,0.074,1.041,0.075c0.009,0,0.016,0,0.025,0c0.355-0.001,0.702-0.031,1.045-0.075
	c0.085-0.011,0.169-0.025,0.254-0.039c0.318-0.051,0.631-0.119,0.936-0.206c0.026-0.008,0.053-0.01,0.078-0.017l0.075-0.023
	c0.016-0.004,0.032-0.009,0.048-0.014l159.464-47.313c1.013,0.45,2.131,0.705,3.311,0.705c1.18,0,2.299-0.255,3.311-0.705
	l159.587,47.349c0.764,0.225,1.546,0.338,2.325,0.338c1.741,0,3.459-0.557,4.887-1.623c2.065-1.543,3.283-3.97,3.283-6.547V338.546
	C512,338.524,512,338.502,512,338.48z M495.66,179.497v148.171l-148.882-44.173v-23.238c10.654-10.97,52.494-55.552,76.12-102.347
	L495.66,179.497z M338.607,16.34c46.552,0,84.426,37.873,84.426,84.424c0,13.27-4.439,28.048-11.341,43.012
	c-0.342,0.547-0.624,1.143-0.834,1.781c-19.686,41.557-57.766,84.15-72.25,99.56c-14.484-15.41-52.564-58.004-72.25-99.561
	c-0.21-0.637-0.491-1.232-0.833-1.778c-6.903-14.966-11.342-29.745-11.342-43.016C254.182,54.213,292.056,16.34,338.607,16.34z
	 M330.437,260.256v23.238l-148.882,44.174v-148.17l72.762-21.588C277.944,204.705,319.783,249.286,330.437,260.256z M16.34,300.539
	l56.449,16.749c0.776,0.23,1.558,0.34,2.327,0.34c3.524,0,6.776-2.297,7.829-5.849c1.284-4.326-1.182-8.873-5.509-10.156
	L16.34,283.495V135.324l148.874,44.174v148.171l-56.447-16.749c-4.325-1.285-8.873,1.182-10.156,5.509
	c-1.284,4.326,1.182,8.873,5.509,10.156l61.096,18.129v148.17L16.34,448.71V300.539z M346.778,448.71v-59.149
	c0-4.512-3.658-8.17-8.17-8.17c-4.513,0-8.17,3.658-8.17,8.17v59.149l-148.882,44.173v-148.17l148.882-44.174v56.341
	c0,4.512,3.657,8.17,8.17,8.17c4.512,0,8.17-3.658,8.17-8.17v-56.341l148.882,44.174v148.171L346.778,448.71z"/>
<path d="M338.607,157.957c31.535,0,57.191-25.656,57.191-57.191c0-31.535-25.657-57.191-57.191-57.191s-57.191,25.656-57.191,57.191
	C281.416,132.3,307.073,157.957,338.607,157.957z M338.607,59.914c22.526,0,40.851,18.325,40.851,40.851
	s-18.325,40.851-40.851,40.851c-22.526,0-40.851-18.325-40.851-40.851S316.082,59.914,338.607,59.914z"/>
</svg>